# Blender v2.79 (sub 0) OBJ File: 'arena_nav.blend'
# www.blender.org
mtllib arena_nav.mtl
o Navmesh.002
v -9.862919 0.154408 118.562233
v -8.662918 0.154408 117.662231
v 2.137081 0.154408 117.662231
v 13.237082 0.154408 117.662231
v 24.037083 0.154408 117.662231
v 35.137085 0.154408 117.662231
v 45.937084 0.154408 117.662231
v 57.037083 0.154408 117.662231
v 67.837082 0.154408 117.662231
v 78.637085 0.154408 117.362228
v 79.537079 0.154408 118.562233
v 78.337082 0.154408 120.062233
v 74.437088 0.154408 122.162231
v 71.737091 0.154408 122.762230
v 62.437084 0.154408 122.762230
v 53.137081 0.154408 122.762230
v 43.837082 0.154408 122.762230
v 34.837082 0.154408 122.762230
v 25.537083 0.154408 122.762230
v 16.237082 0.154408 122.762230
v 6.937082 0.154408 122.762230
v -2.062919 0.154408 122.762230
v -4.762918 0.154408 122.162231
v -8.362919 0.154408 120.362228
v -10.762918 0.154408 -8.337769
v -9.262918 0.154408 -7.737778
v -9.262918 0.154408 0.062225
v -9.262918 0.154408 7.862228
v -9.262918 0.154408 15.662224
v -9.262918 0.154408 23.462227
v -9.262918 0.154408 31.262230
v -9.262918 0.154408 39.062225
v -9.262918 0.154408 46.862228
v -9.262918 0.154408 54.662231
v -9.262918 0.154408 62.462231
v -9.262918 0.154408 70.262230
v -9.262918 0.154408 78.062225
v -9.262918 0.154408 85.862228
v -9.262918 0.154408 93.662231
v -9.262918 0.154408 101.462234
v -9.262918 0.154408 109.262230
v -9.262918 0.154408 117.062233
v -11.062919 0.154408 117.662231
v -13.462919 0.154408 111.662231
v -13.462919 0.154408 104.762230
v -13.462919 0.154408 97.562233
v -13.462919 0.154408 90.362228
v -13.462919 0.154408 83.162231
v -13.462919 0.154408 76.262230
v -13.462919 0.154408 69.062225
v -13.462919 0.154408 61.862228
v -13.462919 0.154408 54.662231
v -13.462919 0.154408 47.762230
v -13.462919 0.154408 40.562225
v -13.462919 0.154408 33.362228
v -13.462919 0.154408 26.162224
v -13.462919 0.154408 19.262230
v -13.462919 0.154408 12.062225
v -13.462919 0.154408 4.862228
v -13.462919 0.154408 -2.337776
v -12.862919 0.154408 -4.737778
v 78.937088 0.154408 109.862228
v 78.937088 0.154408 102.062233
v 78.937088 0.154408 94.262230
v 78.937088 0.154408 86.462234
v 78.937088 0.154408 78.662231
v 78.937088 0.154408 70.862228
v 78.937088 0.154408 63.062229
v 78.937088 0.154408 54.962227
v 78.937088 0.154408 47.162231
v 78.937088 0.154408 39.362228
v 78.937088 0.154408 31.562225
v 78.937088 0.154408 23.762230
v 78.937088 0.154408 15.962227
v 78.937088 0.154408 8.162224
v 78.937088 0.154408 0.362228
v 78.937088 0.154408 -7.737778
v 80.437088 0.154408 -8.337769
v 82.537079 0.154408 -4.737778
v 83.137085 0.154408 -2.037773
v 83.137085 0.154408 5.162224
v 83.137085 0.154408 12.362228
v 83.137085 0.154408 19.562225
v 83.137085 0.154408 26.462227
v 83.137085 0.154408 33.662231
v 83.137085 0.154408 40.562225
v 83.137085 0.154408 47.762230
v 83.137085 0.154408 54.662231
v 83.137085 0.154408 61.862228
v 83.137085 0.154408 68.762230
v 83.137085 0.154408 75.962234
v 83.137085 0.154408 82.862228
v 83.137085 0.154408 90.062225
v 83.137085 0.154408 96.962234
v 83.137085 0.154408 104.162231
v 83.137085 0.154408 111.062233
v 82.537079 0.154408 113.762230
v 80.437088 0.154408 117.962234
v -8.062919 0.154408 -11.337769
v -2.962918 0.154408 -13.437775
v 6.337082 0.154408 -13.437775
v 15.637083 0.154408 -13.437775
v 24.937084 0.154408 -13.437775
v 34.537083 0.154408 -13.437775
v 43.837082 0.154408 -13.437775
v 53.437084 0.154408 -13.437775
v 62.737087 0.154408 -13.437775
v 72.337082 0.154408 -13.437775
v 78.037079 0.154408 -11.037781
v 78.337082 0.154408 -8.637772
v 67.237091 0.154408 -8.637772
v 56.437084 0.154408 -8.637772
v 45.637085 0.154408 -8.637772
v 34.837082 0.154408 -8.637772
v 23.737083 0.154408 -8.637772
v 12.937082 0.154408 -8.637772
v 2.137081 0.154408 -8.637772
v -8.662918 0.154408 -8.637772
vn 0.0000 1.0000 0.0000
usemtl None
s off
f 9//1 14//1 10//1
f 10//1 14//1 13//1
f 10//1 13//1 12//1
f 10//1 12//1 11//1
f 2//1 1//1 24//1
f 22//1 21//1 23//1
f 23//1 21//1 3//1
f 23//1 3//1 24//1
f 24//1 3//1 2//1
f 5//1 19//1 6//1
f 6//1 19//1 18//1
f 20//1 4//1 21//1
f 21//1 4//1 3//1
f 18//1 17//1 6//1
f 6//1 17//1 7//1
f 8//1 15//1 9//1
f 9//1 15//1 14//1
f 17//1 16//1 7//1
f 7//1 16//1 8//1
f 16//1 15//1 8//1
f 19//1 5//1 20//1
f 20//1 5//1 4//1
f 1//1 2//1 42//1
f 41//1 44//1 42//1
f 42//1 44//1 43//1
f 42//1 43//1 1//1
f 60//1 27//1 61//1
f 61//1 27//1 26//1
f 61//1 26//1 25//1
f 47//1 46//1 39//1
f 52//1 51//1 34//1
f 34//1 51//1 35//1
f 28//1 27//1 59//1
f 59//1 27//1 60//1
f 50//1 49//1 36//1
f 36//1 49//1 37//1
f 29//1 28//1 58//1
f 58//1 28//1 59//1
f 49//1 48//1 37//1
f 37//1 48//1 38//1
f 29//1 58//1 57//1
f 56//1 30//1 57//1
f 57//1 30//1 29//1
f 54//1 32//1 55//1
f 55//1 32//1 31//1
f 55//1 31//1 56//1
f 56//1 31//1 30//1
f 53//1 33//1 54//1
f 54//1 33//1 32//1
f 48//1 47//1 38//1
f 38//1 47//1 39//1
f 52//1 34//1 53//1
f 53//1 34//1 33//1
f 40//1 45//1 41//1
f 41//1 45//1 44//1
f 51//1 50//1 35//1
f 35//1 50//1 36//1
f 39//1 46//1 40//1
f 40//1 46//1 45//1
f 97//1 96//1 98//1
f 98//1 96//1 11//1
f 11//1 96//1 10//1
f 10//1 96//1 62//1
f 76//1 80//1 77//1
f 77//1 80//1 79//1
f 77//1 79//1 78//1
f 63//1 62//1 95//1
f 95//1 62//1 96//1
f 89//1 68//1 90//1
f 90//1 68//1 67//1
f 64//1 63//1 94//1
f 94//1 63//1 95//1
f 88//1 87//1 69//1
f 69//1 87//1 70//1
f 65//1 92//1 66//1
f 66//1 92//1 91//1
f 75//1 81//1 76//1
f 76//1 81//1 80//1
f 90//1 67//1 91//1
f 91//1 67//1 66//1
f 74//1 82//1 75//1
f 75//1 82//1 81//1
f 65//1 93//1 92//1
f 83//1 82//1 74//1
f 84//1 83//1 73//1
f 73//1 83//1 74//1
f 94//1 93//1 64//1
f 64//1 93//1 65//1
f 85//1 84//1 72//1
f 72//1 84//1 73//1
f 87//1 86//1 70//1
f 70//1 86//1 71//1
f 86//1 85//1 71//1
f 71//1 85//1 72//1
f 88//1 69//1 89//1
f 89//1 69//1 68//1
f 109//1 110//1 78//1
f 78//1 110//1 77//1
f 99//1 25//1 118//1
f 118//1 25//1 26//1
f 103//1 102//1 115//1
f 115//1 102//1 116//1
f 106//1 112//1 107//1
f 107//1 112//1 111//1
f 101//1 100//1 117//1
f 117//1 100//1 99//1
f 117//1 99//1 118//1
f 105//1 113//1 106//1
f 106//1 113//1 112//1
f 115//1 114//1 103//1
f 103//1 114//1 104//1
f 107//1 111//1 108//1
f 108//1 111//1 109//1
f 109//1 111//1 110//1
f 104//1 114//1 105//1
f 105//1 114//1 113//1
f 102//1 101//1 116//1
f 116//1 101//1 117//1
o Navmesh.001
v -7.723135 0.200753 116.082100
v -7.723135 0.200753 109.782104
v 2.776866 0.200753 109.782104
v 13.576866 0.200753 109.782104
v 24.076866 0.200753 109.782104
v 34.876865 0.200753 109.782104
v 45.376869 0.200753 109.782104
v 56.176868 0.200753 109.782104
v 66.676865 0.200753 109.782104
v 77.476868 0.200753 109.782104
v 77.476868 0.200753 116.082100
v 66.676865 0.200753 116.082100
v 56.176868 0.200753 116.082100
v 45.376869 0.200753 116.082100
v 34.876865 0.200753 116.082100
v 24.076866 0.200753 116.082100
v 13.576866 0.200753 116.082100
v 2.776866 0.200753 116.082100
v -7.723135 0.200753 100.782104
v -7.723135 0.200753 94.482101
v 2.776866 0.200753 94.482101
v 13.576866 0.200753 94.482101
v 24.076866 0.200753 94.482101
v 34.876865 0.200753 94.482101
v 45.376869 0.200753 94.482101
v 56.176868 0.200753 94.482101
v 66.676865 0.200753 94.482101
v 77.476868 0.200753 94.482101
v 77.476868 0.200753 100.782104
v 66.676865 0.200753 100.782104
v 56.176868 0.200753 100.782104
v 45.376869 0.200753 100.782104
v 34.876865 0.200753 100.782104
v 24.076866 0.200753 100.782104
v 13.576866 0.200753 100.782104
v 2.776866 0.200753 100.782104
v -7.723135 0.200753 85.182098
v -7.723135 0.200753 78.882095
v 2.776866 0.200753 78.882095
v 13.576866 0.200753 78.882095
v 24.076866 0.200753 78.882095
v 34.876865 0.200753 78.882095
v 45.376869 0.200753 78.882095
v 56.176868 0.200753 78.882095
v 66.676865 0.200753 78.882095
v 77.476868 0.200753 78.882095
v 77.476868 0.200753 85.182098
v 66.676865 0.200753 85.182098
v 56.176868 0.200753 85.182098
v 45.376869 0.200753 85.182098
v 34.876865 0.200753 85.182098
v 24.076866 0.200753 85.182098
v 13.576866 0.200753 85.182098
v 2.776866 0.200753 85.182098
v -7.723135 0.200753 69.582100
v -7.723135 0.200753 62.982098
v 2.776866 0.200753 62.982098
v 13.576866 0.200753 62.982098
v 24.076866 0.200753 62.982098
v 34.876865 0.200753 62.982098
v 45.376869 0.200753 62.982098
v 56.176868 0.200753 62.982098
v 66.676865 0.200753 62.982098
v 77.476868 0.200753 62.982098
v 77.476868 0.200753 69.582100
v 66.676865 0.200753 69.582100
v 56.176868 0.200753 69.582100
v 45.376869 0.200753 69.582100
v 34.876865 0.200753 69.582100
v 24.076866 0.200753 69.582100
v 13.576866 0.200753 69.582100
v 2.776866 0.200753 69.582100
v -7.723135 0.200753 53.982098
v -7.723135 0.200753 47.682098
v 2.776866 0.200753 47.682098
v 13.576866 0.200753 47.682098
v 24.076866 0.200753 47.682098
v 34.876865 0.200753 47.682098
v 45.376869 0.200753 47.682098
v 56.176868 0.200753 47.682098
v 66.676865 0.200753 47.682098
v 77.476868 0.200753 47.682098
v 77.476868 0.200753 53.982098
v 66.976868 0.200753 53.682098
v 56.176868 0.200753 53.682098
v 45.376869 0.200753 53.682098
v 34.876865 0.200753 53.682098
v 24.076866 0.200753 53.682098
v 13.276867 0.200753 53.682098
v 2.476866 0.200753 53.682098
v -7.723135 0.200753 38.082100
v -7.723135 0.200753 32.082100
v 2.776866 0.200753 32.082100
v 13.576866 0.200753 32.082100
v 24.076866 0.200753 32.082100
v 34.876865 0.200753 32.082100
v 45.376869 0.200753 32.082100
v 56.176868 0.200753 32.082100
v 66.676865 0.200753 32.082100
v 77.476868 0.200753 32.082100
v 77.476868 0.200753 38.082100
v 66.676865 0.200753 38.082100
v 56.176868 0.200753 38.082100
v 45.376869 0.200753 38.082100
v 34.876865 0.200753 38.082100
v 24.076866 0.200753 38.082100
v 13.576866 0.200753 38.082100
v 2.776866 0.200753 38.082100
v -7.723135 0.200753 22.482101
v -7.723135 0.200753 16.482094
v 2.776866 0.200753 16.482094
v 13.576866 0.200753 16.482094
v 24.076866 0.200753 16.482094
v 34.876865 0.200753 16.482094
v 45.376869 0.200753 16.482094
v 56.176868 0.200753 16.482094
v 66.676865 0.200753 16.482094
v 77.476868 0.200753 16.482094
v 77.476868 0.200753 22.482101
v 66.676865 0.200753 22.482101
v 56.176868 0.200753 22.482101
v 45.376869 0.200753 22.482101
v 34.876865 0.200753 22.482101
v 24.076866 0.200753 22.482101
v 13.576866 0.200753 22.482101
v 2.776866 0.200753 22.482101
v -7.723135 0.200753 7.182098
v -7.723135 0.200753 0.882095
v 2.776866 0.200753 0.882095
v 13.576866 0.200753 0.882095
v 24.076866 0.200753 0.882095
v 34.876865 0.200753 0.882095
v 45.376869 0.200753 0.882095
v 56.176868 0.200753 0.882095
v 66.676865 0.200753 0.882095
v 77.476868 0.200753 0.882095
v 77.476868 0.200753 7.182098
v 66.676865 0.200753 7.182098
v 56.176868 0.200753 7.182098
v 45.376869 0.200753 7.182098
v 34.876865 0.200753 7.182098
v 24.076866 0.200753 7.182098
v 13.576866 0.200753 7.182098
v 2.776866 0.200753 7.182098
vn 0.0000 1.0000 0.0000
usemtl None
s off
f 136//2 121//2 119//2
f 119//2 121//2 120//2
f 135//2 134//2 122//2
f 122//2 134//2 123//2
f 130//2 129//2 127//2
f 127//2 129//2 128//2
f 122//2 121//2 135//2
f 135//2 121//2 136//2
f 131//2 130//2 126//2
f 126//2 130//2 127//2
f 125//2 124//2 132//2
f 132//2 124//2 133//2
f 132//2 131//2 125//2
f 125//2 131//2 126//2
f 134//2 133//2 123//2
f 123//2 133//2 124//2
f 154//2 139//2 137//2
f 137//2 139//2 138//2
f 153//2 152//2 140//2
f 140//2 152//2 141//2
f 148//2 147//2 145//2
f 145//2 147//2 146//2
f 140//2 139//2 153//2
f 153//2 139//2 154//2
f 149//2 148//2 144//2
f 144//2 148//2 145//2
f 143//2 142//2 150//2
f 150//2 142//2 151//2
f 150//2 149//2 143//2
f 143//2 149//2 144//2
f 152//2 151//2 141//2
f 141//2 151//2 142//2
f 172//2 157//2 155//2
f 155//2 157//2 156//2
f 171//2 170//2 158//2
f 158//2 170//2 159//2
f 166//2 165//2 163//2
f 163//2 165//2 164//2
f 158//2 157//2 171//2
f 171//2 157//2 172//2
f 167//2 166//2 162//2
f 162//2 166//2 163//2
f 161//2 160//2 168//2
f 168//2 160//2 169//2
f 168//2 167//2 161//2
f 161//2 167//2 162//2
f 170//2 169//2 159//2
f 159//2 169//2 160//2
f 190//2 175//2 173//2
f 173//2 175//2 174//2
f 189//2 188//2 176//2
f 176//2 188//2 177//2
f 184//2 183//2 181//2
f 181//2 183//2 182//2
f 176//2 175//2 189//2
f 189//2 175//2 190//2
f 185//2 184//2 180//2
f 180//2 184//2 181//2
f 179//2 178//2 186//2
f 186//2 178//2 187//2
f 186//2 185//2 179//2
f 179//2 185//2 180//2
f 188//2 187//2 177//2
f 177//2 187//2 178//2
f 193//2 192//2 208//2
f 208//2 192//2 191//2
f 195//2 194//2 206//2
f 206//2 194//2 207//2
f 199//2 202//2 200//2
f 200//2 202//2 201//2
f 197//2 196//2 204//2
f 204//2 196//2 205//2
f 198//2 203//2 199//2
f 199//2 203//2 202//2
f 196//2 195//2 205//2
f 205//2 195//2 206//2
f 194//2 193//2 207//2
f 207//2 193//2 208//2
f 204//2 203//2 197//2
f 197//2 203//2 198//2
f 226//2 211//2 209//2
f 209//2 211//2 210//2
f 225//2 224//2 212//2
f 212//2 224//2 213//2
f 220//2 219//2 217//2
f 217//2 219//2 218//2
f 212//2 211//2 225//2
f 225//2 211//2 226//2
f 221//2 220//2 216//2
f 216//2 220//2 217//2
f 215//2 214//2 222//2
f 222//2 214//2 223//2
f 222//2 221//2 215//2
f 215//2 221//2 216//2
f 224//2 223//2 213//2
f 213//2 223//2 214//2
f 244//2 229//2 227//2
f 227//2 229//2 228//2
f 243//2 242//2 230//2
f 230//2 242//2 231//2
f 238//2 237//2 235//2
f 235//2 237//2 236//2
f 230//2 229//2 243//2
f 243//2 229//2 244//2
f 239//2 238//2 234//2
f 234//2 238//2 235//2
f 233//2 232//2 240//2
f 240//2 232//2 241//2
f 240//2 239//2 233//2
f 233//2 239//2 234//2
f 242//2 241//2 231//2
f 231//2 241//2 232//2
f 262//2 247//2 245//2
f 245//2 247//2 246//2
f 261//2 260//2 248//2
f 248//2 260//2 249//2
f 256//2 255//2 253//2
f 253//2 255//2 254//2
f 248//2 247//2 261//2
f 261//2 247//2 262//2
f 257//2 256//2 252//2
f 252//2 256//2 253//2
f 251//2 250//2 258//2
f 258//2 250//2 259//2
f 258//2 257//2 251//2
f 251//2 257//2 252//2
f 260//2 259//2 249//2
f 249//2 259//2 250//2
o Navmesh
v -7.723142 0.200753 108.281609
v -7.723142 0.200753 102.281609
v 2.776858 0.200753 102.281609
v 13.576859 0.200753 102.281609
v 24.076859 0.200753 102.281609
v 34.876858 0.200753 102.281609
v 45.376862 0.200753 102.281609
v 56.176861 0.200753 102.281609
v 66.676865 0.200753 102.281609
v 77.476868 0.200753 102.281609
v 77.476868 0.200753 108.281609
v 66.676865 0.200753 108.281609
v 56.176861 0.200753 108.281609
v 45.376862 0.200753 108.281609
v 34.876858 0.200753 108.281609
v 24.076859 0.200753 108.281609
v 13.576859 0.200753 108.281609
v 2.776858 0.200753 108.281609
v -7.723142 0.200753 92.981613
v -7.723142 0.200753 86.681610
v 2.776858 0.200753 86.681610
v 13.576859 0.200753 86.681610
v 24.076859 0.200753 86.681610
v 34.876858 0.200753 86.681610
v 45.376862 0.200753 86.681610
v 56.176861 0.200753 86.681610
v 66.676865 0.200753 86.681610
v 77.476868 0.200753 86.681610
v 77.476868 0.200753 92.981613
v 66.676865 0.200753 92.981613
v 56.176861 0.200753 92.981613
v 45.376862 0.200753 92.981613
v 34.876858 0.200753 92.981613
v 24.076859 0.200753 92.981613
v 13.576859 0.200753 92.981613
v 2.776858 0.200753 92.981613
v -7.723142 0.200753 77.381607
v -7.723142 0.200753 71.081604
v 2.776858 0.200753 71.081604
v 13.576859 0.200753 71.081604
v 24.076859 0.200753 71.081604
v 34.876858 0.200753 71.081604
v 45.376862 0.200753 71.081604
v 56.176861 0.200753 71.081604
v 66.676865 0.200753 71.081604
v 77.476868 0.200753 71.081604
v 77.476868 0.200753 77.381607
v 66.676865 0.200753 77.381607
v 56.176861 0.200753 77.381607
v 45.376862 0.200753 77.381607
v 34.876858 0.200753 77.381607
v 24.076859 0.200753 77.381607
v 13.576859 0.200753 77.381607
v 2.776858 0.200753 77.381607
v -7.723142 0.200753 61.481609
v -7.723142 0.200753 55.481609
v 2.776858 0.200753 55.481609
v 13.576859 0.200753 55.481609
v 24.076859 0.200753 55.481609
v 34.876858 0.200753 55.481609
v 45.376862 0.200753 55.481609
v 56.176861 0.200753 55.481609
v 66.676865 0.200753 55.481609
v 77.476868 0.200753 55.481609
v 77.476868 0.200753 61.481609
v 66.676865 0.200753 61.481609
v 56.176861 0.200753 61.481609
v 45.376862 0.200753 61.481609
v 34.876858 0.200753 61.481609
v 24.076859 0.200753 61.481609
v 13.576859 0.200753 61.481609
v 2.776858 0.200753 61.481609
v -7.723142 0.200753 46.181606
v -7.723142 0.200753 39.581604
v 2.776858 0.200753 39.581604
v 13.576859 0.200753 39.581604
v 24.076859 0.200753 39.581604
v 34.876858 0.200753 39.581604
v 45.376862 0.200753 39.581604
v 56.176861 0.200753 39.581604
v 66.676865 0.200753 39.581604
v 77.476868 0.200753 39.581604
v 77.476868 0.200753 46.181606
v 66.676865 0.200753 46.181606
v 56.176861 0.200753 46.181606
v 45.376862 0.200753 46.181606
v 34.876858 0.200753 46.181606
v 24.076859 0.200753 46.181606
v 13.576859 0.200753 46.181606
v 2.776858 0.200753 46.181606
v -7.723142 0.200753 30.581604
v -7.723142 0.200753 23.981606
v 2.776858 0.200753 23.981606
v 13.576859 0.200753 23.981606
v 24.076859 0.200753 23.981606
v 34.876858 0.200753 23.981606
v 45.376862 0.200753 23.981606
v 56.176861 0.200753 23.981606
v 66.676865 0.200753 23.981606
v 77.476868 0.200753 23.981606
v 77.476868 0.200753 30.581604
v 66.676865 0.200753 30.581604
v 56.176861 0.200753 30.581604
v 45.376862 0.200753 30.581604
v 34.876858 0.200753 30.581604
v 24.076859 0.200753 30.581604
v 13.576859 0.200753 30.581604
v 2.776858 0.200753 30.581604
v -7.723142 0.200753 14.981606
v -7.723142 0.200753 8.681602
v 2.776858 0.200753 8.681602
v 13.576859 0.200753 8.681602
v 24.076859 0.200753 8.681602
v 34.876858 0.200753 8.681602
v 45.376862 0.200753 8.681602
v 56.176861 0.200753 8.681602
v 66.676865 0.200753 8.681602
v 77.476868 0.200753 8.681602
v 77.476868 0.200753 14.981606
v 66.676865 0.200753 14.981606
v 56.176861 0.200753 14.981606
v 45.376862 0.200753 14.981606
v 34.876858 0.200753 14.981606
v 24.076859 0.200753 14.981606
v 13.576859 0.200753 14.981606
v 2.776858 0.200753 14.981606
v -7.723142 0.200753 -0.618393
v -7.723142 0.200753 -6.918396
v 2.776858 0.200753 -6.918396
v 13.576859 0.200753 -6.918396
v 24.076859 0.200753 -6.918396
v 34.876858 0.200753 -6.918396
v 45.376862 0.200753 -6.918396
v 56.176861 0.200753 -6.918396
v 66.676865 0.200753 -6.918396
v 77.476868 0.200753 -6.918396
v 77.476868 0.200753 -0.618393
v 66.676865 0.200753 -0.618393
v 56.176861 0.200753 -0.618393
v 45.376862 0.200753 -0.618393
v 34.876858 0.200753 -0.618393
v 24.076859 0.200753 -0.618393
v 13.576859 0.200753 -0.618393
v 2.776858 0.200753 -0.618393
vn 0.0000 1.0000 0.0000
usemtl None
s off
f 280//3 265//3 263//3
f 263//3 265//3 264//3
f 279//3 278//3 266//3
f 266//3 278//3 267//3
f 274//3 273//3 271//3
f 271//3 273//3 272//3
f 266//3 265//3 279//3
f 279//3 265//3 280//3
f 275//3 274//3 270//3
f 270//3 274//3 271//3
f 269//3 268//3 276//3
f 276//3 268//3 277//3
f 276//3 275//3 269//3
f 269//3 275//3 270//3
f 278//3 277//3 267//3
f 267//3 277//3 268//3
f 298//3 283//3 281//3
f 281//3 283//3 282//3
f 297//3 296//3 284//3
f 284//3 296//3 285//3
f 292//3 291//3 289//3
f 289//3 291//3 290//3
f 284//3 283//3 297//3
f 297//3 283//3 298//3
f 293//3 292//3 288//3
f 288//3 292//3 289//3
f 287//3 286//3 294//3
f 294//3 286//3 295//3
f 294//3 293//3 287//3
f 287//3 293//3 288//3
f 296//3 295//3 285//3
f 285//3 295//3 286//3
f 316//3 301//3 299//3
f 299//3 301//3 300//3
f 315//3 314//3 302//3
f 302//3 314//3 303//3
f 310//3 309//3 307//3
f 307//3 309//3 308//3
f 302//3 301//3 315//3
f 315//3 301//3 316//3
f 311//3 310//3 306//3
f 306//3 310//3 307//3
f 305//3 304//3 312//3
f 312//3 304//3 313//3
f 312//3 311//3 305//3
f 305//3 311//3 306//3
f 314//3 313//3 303//3
f 303//3 313//3 304//3
f 334//3 319//3 317//3
f 317//3 319//3 318//3
f 333//3 332//3 320//3
f 320//3 332//3 321//3
f 328//3 327//3 325//3
f 325//3 327//3 326//3
f 320//3 319//3 333//3
f 333//3 319//3 334//3
f 329//3 328//3 324//3
f 324//3 328//3 325//3
f 323//3 322//3 330//3
f 330//3 322//3 331//3
f 330//3 329//3 323//3
f 323//3 329//3 324//3
f 332//3 331//3 321//3
f 321//3 331//3 322//3
f 352//3 337//3 335//3
f 335//3 337//3 336//3
f 351//3 350//3 338//3
f 338//3 350//3 339//3
f 346//3 345//3 343//3
f 343//3 345//3 344//3
f 338//3 337//3 351//3
f 351//3 337//3 352//3
f 347//3 346//3 342//3
f 342//3 346//3 343//3
f 341//3 340//3 348//3
f 348//3 340//3 349//3
f 348//3 347//3 341//3
f 341//3 347//3 342//3
f 350//3 349//3 339//3
f 339//3 349//3 340//3
f 370//3 355//3 353//3
f 353//3 355//3 354//3
f 369//3 368//3 356//3
f 356//3 368//3 357//3
f 364//3 363//3 361//3
f 361//3 363//3 362//3
f 356//3 355//3 369//3
f 369//3 355//3 370//3
f 365//3 364//3 360//3
f 360//3 364//3 361//3
f 359//3 358//3 366//3
f 366//3 358//3 367//3
f 366//3 365//3 359//3
f 359//3 365//3 360//3
f 368//3 367//3 357//3
f 357//3 367//3 358//3
f 388//3 373//3 371//3
f 371//3 373//3 372//3
f 387//3 386//3 374//3
f 374//3 386//3 375//3
f 382//3 381//3 379//3
f 379//3 381//3 380//3
f 374//3 373//3 387//3
f 387//3 373//3 388//3
f 383//3 382//3 378//3
f 378//3 382//3 379//3
f 377//3 376//3 384//3
f 384//3 376//3 385//3
f 384//3 383//3 377//3
f 377//3 383//3 378//3
f 386//3 385//3 375//3
f 375//3 385//3 376//3
f 406//3 391//3 389//3
f 389//3 391//3 390//3
f 405//3 404//3 392//3
f 392//3 404//3 393//3
f 400//3 399//3 397//3
f 397//3 399//3 398//3
f 392//3 391//3 405//3
f 405//3 391//3 406//3
f 401//3 400//3 396//3
f 396//3 400//3 397//3
f 395//3 394//3 402//3
f 402//3 394//3 403//3
f 402//3 401//3 395//3
f 395//3 401//3 396//3
f 404//3 403//3 393//3
f 393//3 403//3 394//3
